# xmcd
#
# Track frame offsets:
#	150
#	17644
#	39159
#	55304
#	71710
#	95263
#	108193
#	128133
#	140621
#	158288
#	168028
#
# Disc length: 2488 seconds
# Revision: 0
# Processed by: cddbd v1.5.2PL0 Copyright (c) Steve Scherf et al.
# Submitted via: dBpowerAMP V12.0
#
DISCID=7f09b60b
DTITLE=Rosie Flores - Simple Case Of The Blues
DYEAR=2019
DGENRE=Americana
TTITLE0=Love Don't Love Nobody
TTITLE1=Mercy Fell Like Rain
TTITLE2=I Want To Do More
TTITLE3=Simple Case Of The Blues
TTITLE4=Drive Drive Drive
TTITLE5=Till The Well Runs Dry
TTITLE6=If There Was A Way
TTITLE7=That's What You Gotta Do
TTITLE8=Enemy Hands
TTITLE9=Teenage Rampage
TTITLE10=If You Need Me
EXTD=
EXTT0=
EXTT1=
EXTT2=
EXTT3=
EXTT4=
EXTT5=
EXTT6=
EXTT7=
EXTT8=
EXTT9=
EXTT10=
PLAYORDER=
